# xmcd
#
# Track frame offsets: 
#        150
#        16187
#        33107
#        53164
#        68474
#        90006
#        108690
#        125481
#        137848
#        156605
#        173834
#        187352
#        212009
#        228350
#        253153
#        269181
#        285459
#        305948
#        323227
#        340414
#
# Disc length: 4726 seconds
#
# Revision: 0
# Processed by: cddbd v1.5.2PL0 Copyright (c) Steve Scherf et al.
# Submitted via: ExactAudioCopy v1.1
#
DISCID=2f127414
DTITLE=Various Artist - Top 40 - Foute Hits - The Ultimate Top 40 Collection 
DTITLE=CD 1
DYEAR=2017
DGENRE=Pop
TTITLE0=Anita Meyer - Why Tell Me, Why
TTITLE1=2 Unlimited - No Limit
TTITLE2=Backstreet Boys - I'll Never Break Your Heart
TTITLE3=Vengaboys - Boom, Boom, Boom, Boom!!
TTITLE4=Whitney Houston - I'm Every Woman
TTITLE5=Captain Jack - Captain Jack
TTITLE6=Bros - I Owe You Nothing
TTITLE7=Samantha Fox - I Only Wanna Be With You
TTITLE8=Milli Vanilli - Blame It On The Rain
TTITLE9=Starmaker (K-Otic) - Damn (I Think I Love You)
TTITLE10=Lee Towers - You'll Never Walk Alone
TTITLE11=Baccara - Darling
TTITLE12=Five - Slam Dunk (Da Funk)
TTITLE13=Dr. Alban - One Love
TTITLE14=The Weather Girls - It's Raining Men
TTITLE15=Westlife - Flying Without Wings
TTITLE16=No Mercy - Where Do You Go
TTITLE17=Sabrina - Boys (Summertime Love)
TTITLE18=Jazzy Jeff and The Fresh Prince - Boom! Shake The Room
TTITLE19=*N Sync - I'll Never Stop
EXTD=
EXTT0=
EXTT1=
EXTT2=
EXTT3=
EXTT4=
EXTT5=
EXTT6=
EXTT7=
EXTT8=
EXTT9=
EXTT10=
EXTT11=
EXTT12=
EXTT13=
EXTT14=
EXTT15=
EXTT16=
EXTT17=
EXTT18=
EXTT19=
PLAYORDER=
